<svg height='300px' width='300px' fill="#000000" xmlns="http://www.w3.org/2000/svg"
     xmlns:xlink="http://www.w3.org/1999/xlink" version="1.1" x="0px" y="0px" viewBox="0 0 100 100"
     enable-background="new 0 0 100 100" xml:space="preserve">
    <path d="M79.036,60.07l3.276-6.155l-1.252-13.557l3.502-5.751L82.874,23L84,13h-2l-5.125,8L72,19l-4.125,2l-5.812-8H60l2.375,10  l-1.193,5.105l-6.877,3.375L44.176,41.483L33.048,44.86L14.293,69.555L16.418,94h38.636l1.625-2.939l-1.506-2.927L42.91,81.042  l10.066,4.638l0.174-0.056L60,74.367V60.989l2.653,33.384L66.053,100h11.508l-0.75-4.125l-3-2.875h-3.252l-0.875-8.879l1.875-9.941  l3.752-7.079L73,74.016L71,84v8h3l4,4l1,4h3l-1-5l-4-3l-2-8l2-9L79.036,60.07z M38.686,78.489c1.962-2.188,3.168-5.138,3.168-8.389  c0-6.739-5.174-12.203-11.556-12.203c-0.117,0-0.233,0.005-0.35,0.01c0.839-0.19,1.712-0.294,2.61-0.294  c6.382,0,11.555,5.059,11.555,11.299C44.113,72.95,41.945,76.492,38.686,78.489z M76.373,27.043l3.063,0.813l-3.375,1.813  L76.373,27.043z M65.182,27.855l3.064-0.813l0.313,2.625L65.182,27.855z M72.25,36.979l-1.816,0.974l-4.105-2.275l4.236,1.539  L72,36.656V34.64L70.035,33h4.406L72,34.655v2.001l1.676,0.56l4.349-1.539l-4.021,2.275L72.25,36.979z"></path>
    <polygon points="61.273,16 59,6 60.508,10 59.754,3 62.063,16 "></polygon>
    <polygon points="82.789,16 85.063,6 83.555,10 84.309,3 81.999,16 "></polygon>
</svg>